{
  "accessors": [
    {
      "bufferView": 3,
      "componentType": 5126,
      "count": 1233,
      "max": [
        21.079498291015625,
        47.53219223022461,
        13.851554870605469
      ],
      "min": [
        -21.079498291015625,
        0.03345586359500885,
        -13.143757820129395
      ],
      "type": "VEC3"
    },
    {
      "bufferView": 3,
      "byteOffset": 14796,
      "componentType": 5126,
      "count": 1233,
      "max": [
        0.9968335628509521,
        0.9999997019767761,
        0.9998722076416016
      ],
      "min": [
        -0.9968335628509521,
        -0.9999887347221375,
        -0.9999076724052429
      ],
      "type": "VEC3"
    },
    {
      "bufferView": 2,
      "componentType": 5126,
      "count": 1233,
      "max": [
        0.9886901378631592,
        0.9871151447296143
      ],
      "min": [
        0.030381061136722565,
        0.016631901264190674
      ],
      "type": "VEC2"
    },
    {
      "bufferView": 1,
      "componentType": 5125,
      "count": 6270,
      "type": "SCALAR"
    },
    {
      "bufferView": 3,
      "byteOffset": 29592,
      "componentType": 5126,
      "count": 110,
      "max": [
        5.222851276397705,
        33.03315353393555,
        13.373780250549316
      ],
      "min": [
        -5.222851276397705,
        28.053997039794922,
        11.839899063110352
      ],
      "type": "VEC3"
    },
    {
      "bufferView": 3,
      "byteOffset": 30912,
      "componentType": 5126,
      "count": 110,
      "max": [
        0.9931919574737549,
        0.951982319355011,
        0.9628756642341614
      ],
      "min": [
        -0.9931920170783997,
        -0.9256303310394287,
        -0.9940317273139954
      ],
      "type": "VEC3"
    },
    {
      "bufferView": 2,
      "byteOffset": 9864,
      "componentType": 5126,
      "count": 110,
      "max": [
        1.0000001192092896,
        1.0
      ],
      "min": [
        0.0,
        0.375
      ],
      "type": "VEC2"
    },
    {
      "bufferView": 1,
      "byteOffset": 25080,
      "componentType": 5125,
      "count": 432,
      "type": "SCALAR"
    },
    {
      "bufferView": 5,
      "componentType": 5126,
      "count": 32,
      "max": [
        1.0,
        0.018552575260400772,
        1.0,
        0.0,
        0.9993593096733093,
        1.0,
        9.843681255006231e-06,
        0.0,
        0.9099088311195374,
        0.9993593096733093,
        1.0,
        0.0,
        17.35540771484375,
        0.0,
        15.872445106506348,
        1.0
      ],
      "min": [
        -1.0,
        -0.2717994153499603,
        -1.0,
        0.0,
        -0.2718554139137268,
        0.035791318863630295,
        -2.5811832671251977e-08,
        0.0,
        -0.05651865899562836,
        -0.9987137913703918,
        -1.0,
        0.0,
        -20.98602867126465,
        -18.59401512145996,
        -14.074091911315918,
        1.0
      ],
      "type": "MAT4"
    },
    {
      "bufferView": 0,
      "componentType": 5123,
      "count": 1233,
      "type": "VEC4"
    },
    {
      "bufferView": 4,
      "componentType": 5126,
      "count": 1233,
      "max": [
        1.0,
        0.4964193105697632,
        0.28789812326431274,
        0.182281494140625
      ],
      "min": [
        0.3258906900882721,
        0.0,
        0.0,
        0.0
      ],
      "type": "VEC4"
    },
    {
      "bufferView": 0,
      "byteOffset": 9864,
      "componentType": 5123,
      "count": 110,
      "type": "VEC4"
    },
    {
      "bufferView": 4,
      "byteOffset": 19728,
      "componentType": 5126,
      "count": 110,
      "max": [
        1.0,
        0.0,
        0.0,
        0.0
      ],
      "min": [
        1.0,
        0.0,
        0.0,
        0.0
      ],
      "type": "VEC4"
    }
  ],
  "asset": {
    "extras": {
      "author": "DuNguyn Studio (https://sketchfab.com/dunguyn)",
      "license": "CC-BY-4.0 (http://creativecommons.org/licenses/by/4.0/)",
      "source": "https://sketchfab.com/3d-models/free-pack-chibi-base-mesh-rigged-fed4fb329f224f1594f631eae8d2626b",
      "title": "Free Pack - Chibi Base Mesh (Rigged)"
    },
    "generator": "Sketchfab-16.54.0",
    "version": "2.0"
  },
  "bufferViews": [
    {
      "buffer": 0,
      "byteLength": 10744,
      "byteStride": 8,
      "name": "shortBufferViews",
      "target": 34962
    },
    {
      "buffer": 0,
      "byteLength": 26808,
      "byteOffset": 10744,
      "name": "floatBufferViews",
      "target": 34963
    },
    {
      "buffer": 0,
      "byteLength": 10744,
      "byteOffset": 37552,
      "byteStride": 8,
      "name": "floatBufferViews",
      "target": 34962
    },
    {
      "buffer": 0,
      "byteLength": 32232,
      "byteOffset": 48296,
      "byteStride": 12,
      "name": "floatBufferViews",
      "target": 34962
    },
    {
      "buffer": 0,
      "byteLength": 21488,
      "byteOffset": 80528,
      "byteStride": 16,
      "name": "floatBufferViews",
      "target": 34962
    },
    {
      "buffer": 0,
      "byteLength": 2048,
      "byteOffset": 102016,
      "name": "floatBufferViews"
    }
  ],
  "buffers": [
    {
      "byteLength": 104064,
      "uri": "scene.bin"
    }
  ],
  "extensionsUsed": [
    "KHR_materials_specular"
  ],
  "materials": [
    {
      "doubleSided": true,
      "name": "BaseMesh_Chibi_M",
      "pbrMetallicRoughness": {
        "baseColorFactor": [
          1.0,
          0.398045601540723,
          0.9664838111586757,
          1.0
        ],
        "metallicFactor": 0.0,
        "roughnessFactor": 0.6262876229718033
      }
    },
    {
      "doubleSided": true,
      "extensions": {
        "KHR_materials_specular": {
          "specularColorFactor": [
            1.0,
            1.0,
            1.0
          ],
          "specularFactor": 0.894478916507174
        }
      },
      "name": "lambert1",
      "pbrMetallicRoughness": {
        "baseColorFactor": [
          0.0,
          0.0,
          0.0,
          1.0
        ],
        "metallicFactor": 0.0,
        "roughnessFactor": 0.0
      }
    }
  ],
  "meshes": [
    {
      "name": "SM_Chibi_Body_BaseMesh_Chibi_M_0",
      "primitives": [
        {
          "attributes": {
            "JOINTS_0": 9,
            "NORMAL": 1,
            "POSITION": 0,
            "TEXCOORD_0": 2,
            "WEIGHTS_0": 10
          },
          "indices": 3,
          "material": 0,
          "mode": 4
        }
      ]
    },
    {
      "name": "SM_Chibi_Eye_lambert1_0",
      "primitives": [
        {
          "attributes": {
            "JOINTS_0": 11,
            "NORMAL": 5,
            "POSITION": 4,
            "TEXCOORD_0": 6,
            "WEIGHTS_0": 12
          },
          "indices": 7,
          "material": 1,
          "mode": 4
        }
      ]
    }
  ],
  "nodes": [
    {
      "children": [
        1
      ],
      "matrix": [
        1.0,
        0.0,
        0.0,
        0.0,
        0.0,
        2.220446049250313e-16,
        -1.0,
        0.0,
        0.0,
        1.0,
        2.220446049250313e-16,
        0.0,
        0.0,
        0.0,
        0.0,
        1.0
      ],
      "name": "Sketchfab_model"
    },
    {
      "children": [
        2
      ],
      "matrix": [
        0.009999999776482582,
        0.0,
        0.0,
        0.0,
        0.0,
        0.0,
        0.009999999776482582,
        0.0,
        0.0,
        -0.009999999776482582,
        0.0,
        0.0,
        0.0,
        0.0,
        0.0,
        1.0
      ],
      "name": "8910ca77513146e59a2f22f4c123919f.fbx"
    },
    {
      "children": [
        3
      ],
      "name": "RootNode"
    },
    {
      "children": [
        4
      ],
      "name": "BaseMesh_Chibi"
    },
    {
      "children": [
        5,
        7,
        9,
        6,
        8
      ],
      "name": "Object_4"
    },
    {
      "children": [
        10
      ],
      "name": "_rootJoint"
    },
    {
      "matrix": [
        1.0,
        -7.294139539680936e-23,
        -2.168404344971009e-19,
        0.0,
        7.294139539680938e-23,
        0.9999999999999999,
        9.67955552016503e-20,
        0.0,
        2.1684043449710084e-19,
        -9.679555520165029e-20,
        0.9999999999999998,
        0.0,
        -2.168404344971009e-19,
        1.7763568394002505e-15,
        -2.7755575615628914e-17,
        1.0
      ],
      "name": "Object_6"
    },
    {
      "mesh": 0,
      "name": "Object_7",
      "skin": 0
    },
    {
      "matrix": [
        1.0,
        -3.2311742677852644e-27,
        0.0,
        0.0,
        3.2311742677852644e-27,
        1.0,
        3.1578530785730856e-21,
        0.0,
        -1.0203573608931833e-47,
        -3.1578530785730856e-21,
        1.0,
        0.0,
        0.0,
        3.552713678800501e-15,
        3.2612801348363973e-16,
        1.0
      ],
      "name": "Object_8"
    },
    {
      "mesh": 1,
      "name": "Object_9",
      "skin": 0
    },
    {
      "children": [
        11,
        33,
        37
      ],
      "name": "Hips_01",
      "rotation": [
        0.48935016989707947,
        0.5096889138221741,
        0.49008840322494507,
        0.5104578137397766
      ],
      "translation": [
        0.0015138597227633,
        7.742250442504883,
        0.21115781366825104
      ]
    },
    {
      "children": [
        12
      ],
      "name": "Spine_02",
      "rotation": [
        0.0007530954899266362,
        3.0676172173116356e-05,
        7.409190772023067e-08,
        0.9999997019767761
      ],
      "translation": [
        2.251696825027466,
        0.0,
        2.732189474663471e-16
      ]
    },
    {
      "children": [
        13
      ],
      "name": "Spine1_03",
      "rotation": [
        -4.620729646406836e-19,
        -1.6155871338926322e-27,
        -1.401298464324817e-45,
        1.0
      ],
      "translation": [
        2.626979351043701,
        9.992007221626409e-15,
        -3.0933014396467007e-12
      ]
    },
    {
      "children": [
        14,
        17,
        25
      ],
      "name": "Spine2_04",
      "rotation": [
        6.938874051572527e-18,
        1.7041566901881807e-20,
        0.0024559481535106897,
        0.999997079372406
      ],
      "translation": [
        3.002262592315674,
        -1.0118492355104536e-07,
        -1.3857638370140535e-09
      ]
    },
    {
      "children": [
        15
      ],
      "name": "Neck_05",
      "rotation": [
        0.9945080876350403,
        0.10465985536575317,
        -2.4401177693006426e-12,
        -2.3186702557964622e-11
      ],
      "translation": [
        3.8407301902770996,
        5.523359547510154e-14,
        -1.7859983492130027e-09
      ]
    },
    {
      "children": [
        16
      ],
      "name": "Head_06",
      "rotation": [
        1.3851476019709757e-17,
        8.541915750704874e-19,
        0.061550989747047424,
        0.9981040358543396
      ],
      "translation": [
        1.5806266069412231,
        0.0,
        7.003536084404516e-10
      ]
    },
    {
      "name": "HeadTop_End_07",
      "rotation": [
        0.4871593117713928,
        0.5125190615653992,
        -0.4871593117713928,
        0.5125190615653992
      ],
      "translation": [
        25.947509765625,
        1.3322676295501878e-15,
        1.1695108881326632e-08
      ]
    },
    {
      "children": [
        18
      ],
      "name": "RightShoulder_08",
      "rotation": [
        0.4207006096839905,
        0.577197790145874,
        -0.5504841208457947,
        0.43222784996032715
      ],
      "translation": [
        2.814528703689575,
        -0.05249883234500885,
        -3.1730103492736816
      ]
    },
    {
      "children": [
        19
      ],
      "name": "RightArm_09",
      "rotation": [
        0.005312495864927769,
        -0.03804287314414978,
        0.13604816794395447,
        0.9899572730064392
      ],
      "translation": [
        3.1060523986816406,
        0.0,
        -6.661338147750939e-16
      ]
    },
    {
      "children": [
        20
      ],
      "name": "RightForeArm_010",
      "rotation": [
        4.0727878895576352e-19,
        0.05868549644947052,
        0.0022550260182470083,
        0.9982739686965942
      ],
      "translation": [
        4.386734485626221,
        -7.105427357601002e-15,
        4.440892098500626e-16
      ]
    },
    {
      "children": [
        21,
        23
      ],
      "name": "RightHand_011",
      "rotation": [
        -3.0725208489457145e-05,
        -0.030440013855695724,
        -0.0011709785321727395,
        0.9995359182357788
      ],
      "translation": [
        2.993643283843994,
        0.002532469341531396,
        -0.06588518619537354
      ]
    },
    {
      "children": [
        22
      ],
      "name": "RightHandIndex1_012",
      "rotation": [
        0.0,
        -0.0,
        -1.9533141068636707e-23,
        1.0
      ],
      "translation": [
        3.8285038471221924,
        3.552713678800501e-15,
        2.220446049250313e-16
      ]
    },
    {
      "name": "RightHandIndex2_013",
      "rotation": [
        0.0,
        6.617444900424222e-24,
        -4.6002922248055403e-23,
        1.0
      ],
      "translation": [
        2.2413899898529053,
        7.944892104205792e-07,
        4.496993142311112e-07
      ]
    },
    {
      "children": [
        24
      ],
      "name": "RightHandIndex3_014",
      "rotation": [
        0.01217985711991787,
        0.5417194366455078,
        0.018892452120780945,
        0.840258777141571
      ],
      "translation": [
        2.9139225482940674,
        -5.405211140896427e-07,
        -2.3768484592437744
      ]
    },
    {
      "name": "RightHandIndex2_015",
      "rotation": [
        0.7071068286895752,
        -2.2079429165065535e-17,
        1.7172888247699044e-17,
        0.7071068286895752
      ],
      "translation": [
        1.693094253540039,
        -1.0658141036401503e-14,
        -5.3290705182007514e-15
      ]
    },
    {
      "children": [
        26
      ],
      "name": "Left_Shoulder_016",
      "rotation": [
        0.4207006096839905,
        0.577197790145874,
        -0.5504841208457947,
        0.43222784996032715
      ],
      "translation": [
        2.8145229816436768,
        -0.05249941721558571,
        3.1730079650878906
      ]
    },
    {
      "children": [
        27
      ],
      "name": "Left_Arm_017",
      "rotation": [
        0.005312495864927769,
        -0.03804287314414978,
        0.13604816794395447,
        0.9899572730064392
      ],
      "translation": [
        -2.6445775032043457,
        -1.6245254278182983,
        -0.12128717452287674
      ]
    },
    {
      "children": [
        28
      ],
      "name": "Left_ForeArm_018",
      "rotation": [
        2.0363939447788176e-19,
        0.05868549644947052,
        0.0022550260182470083,
        0.9982739686965942
      ],
      "translation": [
        -4.358635425567627,
        -0.018979670479893684,
        0.4950699210166931
      ]
    },
    {
      "children": [
        29,
        31
      ],
      "name": "Left_Hand_019",
      "rotation": [
        -3.0725208489457145e-05,
        -0.030440013855695724,
        -0.0011709785321727395,
        0.9995359182357788
      ],
      "translation": [
        -2.9634523391723633,
        0.016445720568299294,
        -0.4290596842765808
      ]
    },
    {
      "children": [
        30
      ],
      "name": "Left_HandIndex1_020",
      "rotation": [
        1.2904783908140871e-08,
        1.3234889011987538e-23,
        -5.514175592818323e-23,
        1.0
      ],
      "translation": [
        -3.8285000324249268,
        -1.4863497881378862e-06,
        -1.3142565649104654e-06
      ]
    },
    {
      "name": "Left_HandIndex2_021",
      "rotation": [
        1.4901161193847656e-08,
        1.2609553762146396e-31,
        8.462128285245708e-24,
        1.0
      ],
      "translation": [
        -2.2414000034332275,
        -8.701853175807628e-07,
        8.160181437233405e-07
      ]
    },
    {
      "children": [
        32
      ],
      "name": "Left_HandIndex3_022",
      "rotation": [
        0.01217985711991787,
        0.5417194366455078,
        0.018892452120780945,
        0.840258777141571
      ],
      "translation": [
        -2.9138998985290527,
        -1.1312772585370112e-06,
        -2.376850128173828
      ]
    },
    {
      "name": "Left_HandIndex2_023",
      "rotation": [
        0.7071068286895752,
        -1.47196177890158e-17,
        1.422896369727915e-16,
        0.7071068286895752
      ],
      "translation": [
        1.117275357246399,
        0.025910167023539543,
        -1.2718584537506104
      ]
    },
    {
      "children": [
        34
      ],
      "name": "RightUpLeg_024",
      "rotation": [
        -1.0842021724855044e-19,
        -7.52316384526264e-37,
        6.938893903907228e-18,
        1.0
      ],
      "translation": [
        -1.6587141752243042,
        -0.4355764091014862,
        -4.512692451477051
      ]
    },
    {
      "children": [
        35
      ],
      "name": "RightLeg_025",
      "rotation": [
        -3.2526065174565133e-19,
        -2.256949153578792e-36,
        6.938893903907228e-18,
        1.0
      ],
      "translation": [
        -2.1095595359802246,
        -1.6930901125533637e-15,
        7.105427357601002e-15
      ]
    },
    {
      "children": [
        36
      ],
      "name": "RightFoot_026",
      "rotation": [
        -3.2526065174565133e-19,
        -6.776263578034403e-21,
        6.938893903907228e-18,
        1.0
      ],
      "translation": [
        -1.9978313446044922,
        -7.355227538141662e-16,
        1.7763568394002505e-15
      ]
    },
    {
      "name": "RightToeBase_027",
      "rotation": [
        -2.168404344971009e-19,
        6.776263578034403e-21,
        3.469446951953614e-18,
        1.0
      ],
      "translation": [
        -1.03584623336792,
        3.25272798538208,
        -4.440892098500626e-15
      ]
    },
    {
      "children": [
        38
      ],
      "name": "Left_UpLeg_00",
      "rotation": [
        -1.0842021724855044e-19,
        -7.52316384526264e-37,
        6.938893903907228e-18,
        1.0
      ],
      "translation": [
        -1.65816330909729,
        -0.44916918873786926,
        4.511566638946533
      ]
    },
    {
      "children": [
        39
      ],
      "name": "Left_Leg_028",
      "rotation": [
        -3.2526065174565133e-19,
        -2.256949153578792e-36,
        6.938893903907228e-18,
        1.0
      ],
      "translation": [
        -2.109557867050171,
        8.750664903800498e-08,
        0.000259427004493773
      ]
    },
    {
      "children": [
        40
      ],
      "name": "Left_Foot_029",
      "rotation": [
        -3.2526065174565133e-19,
        -6.776263578034403e-21,
        6.938893903907228e-18,
        1.0
      ],
      "translation": [
        -1.9978253841400146,
        -1.3199712611822179e-07,
        0.00024257157929241657
      ]
    },
    {
      "name": "Left_ToeBase_030",
      "rotation": [
        -2.168404344971009e-19,
        6.776263578034403e-21,
        3.469446951953614e-18,
        1.0
      ],
      "translation": [
        -1.0358530282974243,
        3.252715826034546,
        0.009922775439918041
      ]
    }
  ],
  "scene": 0,
  "scenes": [
    {
      "name": "Sketchfab_Scene",
      "nodes": [
        0
      ]
    }
  ],
  "skins": [
    {
      "inverseBindMatrices": 8,
      "joints": [
        5,
        10,
        11,
        12,
        13,
        14,
        15,
        16,
        17,
        18,
        19,
        20,
        21,
        22,
        23,
        24,
        25,
        26,
        27,
        28,
        29,
        30,
        31,
        32,
        33,
        34,
        35,
        36,
        37,
        38,
        39,
        40
      ],
      "skeleton": 5
    }
  ]
}
